inDegrees=yes
name=ik_S55_A09_T01
DataType=double
version=3
OpenSimVersion=4.3-2021-08-27-4bc7ad9
endheader
time	pelvis_tilt	pelvis_list	pelvis_rotation	pelvis_tx	pelvis_ty	pelvis_tz	hip_flexion_r	hip_adduction_r	hip_rotation_r	knee_angle_r	knee_angle_r_beta	ankle_angle_r	subtalar_angle_r	mtp_angle_r	hip_flexion_l	hip_adduction_l	hip_rotation_l	knee_angle_l	knee_angle_l_beta	ankle_angle_l	subtalar_angle_l	mtp_angle_l	lumbar_extension	lumbar_bending	lumbar_rotation	arm_flex_r	arm_add_r	arm_rot_r	elbow_flex_r	pro_sup_r	wrist_flex_r	wrist_dev_r	arm_flex_l	arm_add_l	arm_rot_l	elbow_flex_l	pro_sup_l	wrist_flex_l	wrist_dev_l
14.69999999999978	-4.158888462045659	-0.05469012105194784	21.34643737807786	0	0.9399999999999999	0	42.97262985125585	-11.01537926747594	-10.56108645271474	54.13539671678264	0.9448409145811854	0	0	0	42.97262985125585	-11.01537926747594	-10.56108645271474	54.13539671678264	0.9448409145811854	0	0	0	-3.099599540453929	-1.659257405070655	5.332572766374938	57.05059509364185	-19.73651821476441	16.79467018534158	73.02971225588335	91.50107194437595	0	0	40.96002526892996	-24.57134351902194	0.09402252240249763	85.57476384712278	123.9305333190037	0	0
14.71999999999978	-4.137049548314509	-0.04313011917921419	21.36957817540897	0	0.9399999999999999	0	42.97324704280162	-11.01430063194467	-10.5607042065745	54.13557303720975	0.9448439919531769	0	0	0	42.97324704280162	-11.01430063194467	-10.5607042065745	54.13557303720975	0.9448439919531769	0	0	0	-3.075211978947715	-1.654213628524494	5.301546965696696	57.00584539971479	-19.74861964650049	16.79231970643918	72.9987386266492	91.60162334138231	0	0	40.96125137023522	-24.6359738515401	-0.1614412790125899	85.45754412545075	123.9138972909998	0	0
14.73999999999977	-4.121303357469001	-0.03814254152337001	21.40238456637093	0	0.9399999999999999	0	42.97375226576209	-11.01342180224384	-10.56039222962354	54.13571790886667	0.9448465204405829	0	0	0	42.97375226576209	-11.01342180224384	-10.56039222962354	54.13571790886667	0.9448465204405829	0	0	0	-3.058863784603731	-1.653892103330672	5.283331839806347	56.96412339643098	-19.76512065551466	16.78952555355463	72.9978457715673	91.70075738511522	0	0	40.92438391591836	-24.63403682704526	-0.3381353746707078	85.30907640072215	123.6529260090133	0	0
14.75999999999977	-4.116792915448786	-0.03171739267811204	21.43366130985112	0	0.9399999999999999	0	42.97414868122942	-11.01273405883996	-10.56014784907361	54.13583181873887	0.9448485085429034	0	0	0	42.97414868122942	-11.01273405883996	-10.56014784907361	54.13583181873887	0.9448485085429034	0	0	0	-3.052443062038024	-1.648763852368182	5.276169311974769	56.95370887168206	-19.73471982985897	16.91456207933708	72.96396844843117	91.70053652898025	0	0	40.90838565817906	-24.61165839123261	-0.3202501559122717	85.23276207736247	123.4639568763027	0	0
14.77999999999977	-4.111411500301589	-0.02417094508974796	21.44111406440981	0	0.9399999999999999	0	42.97476951835566	-11.01166499480982	-10.55976697028494	54.13601138710878	0.9448516426021908	0	0	0	42.97476951835566	-11.01166499480982	-10.55976697028494	54.13601138710878	0.9448516426021908	0	0	0	-3.044719892762132	-1.64238385385088	5.263136809581974	56.97081066157175	-19.75000204428746	16.94990888927791	72.96742993596904	91.79248190430397	0	0	40.88747839388564	-24.58072921211394	-0.4180356345628815	84.9988204690077	123.0018866420885	0	0
14.79999999999977	-4.107718058763512	-0.01341301915864188	21.44764189018838	0	0.9399999999999999	0	42.9753497517428	-11.01066616484774	-10.55941103142997	54.13617915789241	0.9448545707547537	0	0	0	42.9753497517428	-11.01066616484774	-10.55941103142997	54.13617915789241	0.9448545707547537	0	0	0	-3.037324787140667	-1.632533626213867	5.251277788591728	57.00468932555879	-19.7925329909283	16.95998300007458	73.04266199562583	92.39064142198497	0	0	40.81424948114268	-24.54146645402289	-0.5910194306041036	84.889037554776	122.70954848188	0	0
14.81999999999977	-4.09042093701693	-0.01392402560044532	21.46661471303865	0	0.9399999999999999	0	42.97608402146052	-11.00938926598181	-10.55895749828205	54.13638929985849	0.9448582384239584	0	0	0	42.97608402146052	-11.00938926598181	-10.55895749828205	54.13638929985849	0.9448582384239584	0	0	0	-3.021551100132495	-1.637061340764222	5.219535475294541	56.9911875721402	-19.77454991447995	16.94232719905473	72.98964600920254	92.71373223847267	0	0	40.71787707933311	-24.58002902108383	-0.8016249178881998	84.84843440296964	122.6127978488155	0	0
14.83999999999977	-4.090035073540536	-0.01352306577017284	21.49499796413321	0	0.9399999999999999	0	42.97660736801981	-11.0084780607088	-10.55863395464327	54.13653883514107	0.9448608483069872	0	0	0	42.97660736801981	-11.0084780607088	-10.55863395464327	54.13653883514107	0.9448608483069872	0	0	0	-3.021179910038452	-1.634437522279204	5.183890894550295	57.00141364539469	-19.74954445428117	16.98193109872073	72.95326793188042	92.87924250548836	0	0	40.65317258541284	-24.65068429417487	-1.110517697476034	84.84535748200432	122.8223657839315	0	0
14.85999999999977	-4.072003517724518	-0.01027261256936206	21.55561404854227	0	0.9399999999999999	0	42.97739006857245	-11.00711410880495	-10.55814972718653	54.13676213728672	0.9448647456646557	0	0	0	42.97739006857245	-11.00711410880495	-10.55814972718653	54.13676213728672	0.9448647456646557	0	0	0	-3.003416154179883	-1.634361262524383	5.127249434331825	56.97218108609493	-19.72425968865423	17.01363132932027	72.85748534371348	92.93446833481048	0	0	40.44432387873611	-24.84246728710337	-1.535366355462366	85.02098718678232	123.4197890721655	0	0
14.87999999999977	-4.059806224140951	-0.003120054422189233	21.71130685915298	0	0.9399999999999999	0	42.97832125802478	-11.0054988695931	-10.55757528396565	54.13702871863267	0.9448693983868669	0	0	0	42.97832125802478	-11.0054988695931	-10.55757528396565	54.13702871863267	0.9448693983868669	0	0	0	-2.98962837565029	-1.623847560274881	4.986286203168374	56.92633095034435	-19.7708678210872	16.98539264061118	72.85628487534183	92.95108779088093	0	0	40.21085963576176	-25.11532722011034	-2.010002431293096	85.28747827682029	125.4533160599325	0	0
14.89999999999977	-4.059048084158173	-0.001141301117100535	21.76626365320631	0	0.9399999999999999	0	42.97920440941251	-11.0039658352741	-10.55703011310431	54.13728115014845	0.9448738041479532	0	0	0	42.97920440941251	-11.0039658352741	-10.55703011310431	54.13728115014845	0.9448738041479532	0	0	0	-2.988552620568655	-1.618450513930576	4.927956408488325	56.91222064241092	-19.80263250228558	16.94206529774625	72.87410505133748	92.98321231672978	0	0	40.01496356635138	-25.30634343754357	-2.328001000600691	85.51625995746521	125.9856629243415	0	0
14.91999999999977	-4.06075424621547	-0.01831814452005587	21.77797846521656	0	0.9399999999999999	0	42.9797697164524	-11.00302063280666	-10.55668965491626	54.13744839048245	0.9448767230424234	0	0	0	42.9797697164524	-11.00302063280666	-10.55668965491626	54.13744839048245	0.9448767230424234	0	0	0	-2.996834815334738	-1.631956200799516	4.90397907720355	56.94564171105755	-19.80038703197499	16.92175174647127	72.92306497614977	93.07124877920478	0	0	39.91852446989459	-25.33154809095532	-2.292011960367723	85.61942459195876	126.9647294455321	0	0
14.93999999999977	-4.064586057667627	-0.001284540059913735	21.74969123611956	0	0.9399999999999999	0	42.98034875145377	-11.00202203892823	-10.55633366602774	54.13761471278075	0.9448796259141484	0	0	0	42.98034875145377	-11.00202203892823	-10.55633366602774	54.13761471278075	0.9448796259141484	0	0	0	-2.994238530970057	-1.616623247675607	4.951692978641601	56.93961078274665	-19.87707772918508	16.99143032218936	72.96940952891548	93.19378233020443	0	0	39.83974125854098	-25.19107414020228	-2.051393219808589	85.59878853732791	127.3988446141256	0	0
14.95999999999977	-4.07787017922585	-0.01736927203368935	21.71512129881353	0	0.9399999999999999	0	42.98091182465123	-11.0010501017006	-10.55598724608031	54.13777622449527	0.9448824448253472	0	0	0	42.98091182465123	-11.0010501017006	-10.55598724608031	54.13777622449527	0.9448824448253472	0	0	0	-3.01269766079468	-1.627358172405581	4.976549071382203	56.95286959634151	-19.8843184090653	17.06383001421405	73.02922115973578	93.27857421497963	0	0	39.83318071559847	-25.13023754123315	-1.808670747878328	85.63861312158684	127.6658007792219	0	0
14.97999999999977	-4.076348719721159	-0.01744350906183511	21.69599273151929	0	0.9399999999999999	0	42.98171852578861	-10.99966551366317	-10.55549274600898	54.1380087374713	0.9448865029423327	0	0	0	42.98171852578861	-10.99966551366317	-10.55549274600898	54.1380087374713	0.9448865029423327	0	0	0	-3.011541427238488	-1.629104501865544	5.013984355928473	56.9203127187487	-19.90503942628472	17.12701537202111	73.0812115620238	93.38982583945005	0	0	39.80971174856318	-25.0689570705782	-1.628244198157023	85.7328596032435	128.0281189190833	0	0
14.99999999999977	-4.077633955439532	-0.03393709136250858	21.66623643941664	0	0.9399999999999999	0	42.98234796463264	-10.99861238921207	-10.55511330891299	54.13819438924077	0.9448897431769721	0	0	0	42.98234796463264	-10.99861238921207	-10.55511330891299	54.13819438924077	0.9448897431769721	0	0	0	-3.018875713954004	-1.644028798015724	5.028114125384301	56.93793997815411	-19.87164365877452	17.10897396668505	73.08030272075638	93.38493730352465	0	0	39.78466815797069	-25.07118201306504	-1.564486790739643	85.95423175292888	128.78197898997	0	0
